<svg xmlns="http://www.w3.org/2000/svg" viewBox="0 0 44 44" width="44" height="44">
  <g fill="none" stroke="currentColor" stroke-width="1.4" stroke-linecap="round" stroke-linejoin="round">
    <path d="M15 30c-.5-5 0-10 1.5-14"></path>
    <path d="M16.5 16c-3-3.5-7-4-10-2.5 3.5.2 6.5 1 10 2.5Z"></path>
    <path d="M16.5 16c-1-4.5-4-7.5-7.5-8 3.8-.8 6.8 2.8 7.5 8Z"></path>
    <path d="M16.5 16c3-3.5 7-4 10-2.5-3.5.2-6.5 1-10 2.5Z"></path>
    <path d="M16.5 16c1.5-4.2 4.5-6.8 8-7-3.2 1.6-6.2 3.4-8 7Z"></path>
    <path d="M4 34c3-2 6-2 9 0s6 2 9 0 6-2 9 0 6 2 9 0"></path>
    <path d="M4 39c3-2 6-2 9 0s6 2 9 0 6-2 9 0 6 2 9 0"></path>
  </g>
</svg>