<svg xmlns="http://www.w3.org/2000/svg" viewBox="0 0 64 64" width="64" height="64">
  <defs>
    <radialGradient id="face" cx="50%" cy="38%" r="70%">
      <stop offset="0%" stop-color="#2A2140"/><stop offset="100%" stop-color="#161028"/>
    </radialGradient>
    <linearGradient id="rim" x1="0" y1="0" x2="0" y2="1">
      <stop offset="0%" stop-color="#A46CF5"/><stop offset="100%" stop-color="#7B3FE4"/>
    </linearGradient>
  </defs>
  <rect width="64" height="64" rx="12" fill="#070E1A"/>
  <ellipse cx="32" cy="55" rx="14" ry="4" fill="#A46CF5" opacity="0.45"/>
  <path d="M32 8c11 0 19 8 19 18 0 10-9 17-16 28-1.3 1.9-3 1.9-4.3 0C23.7 43 14 36 14 26 14 16 21 8 32 8Z" fill="url(#rim)"/>
  <path d="M32 14c8 0 14 5.5 14 12.5S38.5 41 33 49.5c-.6.9-1.4.9-2 0C25.5 41 18 33.5 18 26.5 18 19.5 24 14 32 14Z" fill="url(#face)"/>
  <circle cx="32" cy="26" r="6" fill="#C9A8FF"/>
</svg>
